# xmcd CD database file
#
# Track frame offsets:
#	150
#	14482
#	32493
#	49219
#	64433
#	81531
#	97150
#	111521
#	127201
#	142279
#	157201
#	171380
#	187989
#	205585
#	223831
#	241274
#	259581
#	275065
#	297042
#	312410
#
# Disc length: 4387 seconds
#
# Revision: 3
# Processed by: cddbd v1.4PL0 Copyright (c) Steve Scherf et al.
# Submitted via: CDex 1.50Beta7
#
DISCID=4a112114
DTITLE=Various Artist - Bravo Hits Zima 2002
DYEAR=1900
DGENRE=New Age
TTITLE0=ii0 - Rapture
TTITLE1=Gigi D'agostino - L'amour Toujour
TTITLE2=Prezioso - Let's talk about a man
TTITLE3=Sylver - Forgiven
TTITLE4=Dj Encore - I see right through you
TTITLE5=ATB - Hold You
TTITLE6=Milk Inc - Walking on water
TTITLE7=Schiller - Dancing with lonelinnes
TTITLE8=Marc et Claude - Tremble
TTITLE9=Kaja Paschalska - Only You
TTITLE10=Safari Duo - Baya Baya
TTITLE11=Lasgo - SomeThing
TTITLE12=Mellow Trax - Mucho Mambo
TTITLE13=Dj Bobo - Let The Party Begin
TTITLE14=Hermes House Band - Que Sera Sera
TTITLE15=Zero vs DFp - Banya u Cygana
TTITLE16=Dj Cavarra's - Amada mia Amore
TTITLE17=S.H.E - Can't get you of my head
TTITLE18=Edelweis - Bring Me Edelweiss
TTITLE19=SKY - INTO Your Eyes
EXTD=
EXTT0=
EXTT1=
EXTT2=
EXTT3=
EXTT4=
EXTT5=
EXTT6=
EXTT7=
EXTT8=
EXTT9=
EXTT10=
EXTT11=
EXTT12=
EXTT13=
EXTT14=
EXTT15=
EXTT16=
EXTT17=
EXTT18=
EXTT19=
PLAYORDER=
